<mxfile host="app.diagrams.net" agent="Mozilla/5.0 (Windows NT 10.0; Win64; x64) AppleWebKit/537.36 (KHTML, like Gecko) Chrome/135.0.0.0 Safari/537.36" version="26.2.14">
  <diagram name="Página-1" id="h_kVS6QXwFwlx4hH-j7_">
    <mxGraphModel dx="2560" dy="4295" grid="0" gridSize="10" guides="1" tooltips="1" connect="1" arrows="1" fold="1" page="0" pageScale="1" pageWidth="827" pageHeight="1169" math="0" shadow="0">
      <root>
        <mxCell id="0" />
        <mxCell id="1" parent="0" />
        <mxCell id="Y_0qaRD-UfhqwSKcZjdB-19" style="edgeStyle=none;curved=1;rounded=0;orthogonalLoop=1;jettySize=auto;html=1;entryX=0;entryY=0.5;entryDx=0;entryDy=0;fontSize=12;startSize=8;endSize=8;" edge="1" parent="1" source="Y_0qaRD-UfhqwSKcZjdB-1" target="Y_0qaRD-UfhqwSKcZjdB-18">
          <mxGeometry relative="1" as="geometry" />
        </mxCell>
        <mxCell id="Y_0qaRD-UfhqwSKcZjdB-1" value="digite o tamanho da senha" style="rounded=0;whiteSpace=wrap;html=1;" vertex="1" parent="1">
          <mxGeometry x="365" y="-365" width="120" height="60" as="geometry" />
        </mxCell>
        <mxCell id="Y_0qaRD-UfhqwSKcZjdB-25" style="edgeStyle=none;curved=1;rounded=0;orthogonalLoop=1;jettySize=auto;html=1;fontSize=12;startSize=8;endSize=8;" edge="1" parent="1" source="Y_0qaRD-UfhqwSKcZjdB-2" target="Y_0qaRD-UfhqwSKcZjdB-22">
          <mxGeometry relative="1" as="geometry" />
        </mxCell>
        <mxCell id="Y_0qaRD-UfhqwSKcZjdB-2" value="perguntar: vai ter letras maiúsculas?" style="rounded=0;whiteSpace=wrap;html=1;" vertex="1" parent="1">
          <mxGeometry x="732.5" y="-13" width="120" height="60" as="geometry" />
        </mxCell>
        <mxCell id="Y_0qaRD-UfhqwSKcZjdB-14" style="edgeStyle=none;curved=1;rounded=0;orthogonalLoop=1;jettySize=auto;html=1;entryX=0.5;entryY=0;entryDx=0;entryDy=0;fontSize=12;startSize=8;endSize=8;" edge="1" parent="1" source="Y_0qaRD-UfhqwSKcZjdB-3" target="Y_0qaRD-UfhqwSKcZjdB-13">
          <mxGeometry relative="1" as="geometry" />
        </mxCell>
        <mxCell id="Y_0qaRD-UfhqwSKcZjdB-3" value="" style="ellipse;whiteSpace=wrap;html=1;aspect=fixed;" vertex="1" parent="1">
          <mxGeometry x="197" y="-575" width="28" height="28" as="geometry" />
        </mxCell>
        <mxCell id="Y_0qaRD-UfhqwSKcZjdB-10" style="edgeStyle=none;curved=1;rounded=0;orthogonalLoop=1;jettySize=auto;html=1;fontSize=12;startSize=8;endSize=8;entryX=0.5;entryY=1;entryDx=0;entryDy=0;" edge="1" parent="1" source="Y_0qaRD-UfhqwSKcZjdB-4" target="Y_0qaRD-UfhqwSKcZjdB-21">
          <mxGeometry relative="1" as="geometry">
            <mxPoint x="790" y="-484" as="targetPoint" />
          </mxGeometry>
        </mxCell>
        <mxCell id="Y_0qaRD-UfhqwSKcZjdB-11" style="edgeStyle=none;curved=1;rounded=0;orthogonalLoop=1;jettySize=auto;html=1;fontSize=12;startSize=8;endSize=8;" edge="1" parent="1" source="Y_0qaRD-UfhqwSKcZjdB-4" target="Y_0qaRD-UfhqwSKcZjdB-2">
          <mxGeometry relative="1" as="geometry" />
        </mxCell>
        <mxCell id="Y_0qaRD-UfhqwSKcZjdB-4" value="" style="rhombus;whiteSpace=wrap;html=1;" vertex="1" parent="1">
          <mxGeometry x="751" y="-373.5" width="83" height="77" as="geometry" />
        </mxCell>
        <mxCell id="Y_0qaRD-UfhqwSKcZjdB-5" value="SIM&amp;nbsp;" style="text;html=1;align=center;verticalAlign=middle;whiteSpace=wrap;rounded=0;" vertex="1" parent="1">
          <mxGeometry x="725" y="-305" width="60" height="30" as="geometry" />
        </mxCell>
        <mxCell id="Y_0qaRD-UfhqwSKcZjdB-6" value="NÃO" style="text;html=1;align=center;verticalAlign=middle;whiteSpace=wrap;rounded=0;" vertex="1" parent="1">
          <mxGeometry x="725" y="-407" width="60" height="30" as="geometry" />
        </mxCell>
        <mxCell id="Y_0qaRD-UfhqwSKcZjdB-16" style="edgeStyle=none;curved=1;rounded=0;orthogonalLoop=1;jettySize=auto;html=1;entryX=0.5;entryY=0;entryDx=0;entryDy=0;fontSize=12;startSize=8;endSize=8;" edge="1" parent="1" source="Y_0qaRD-UfhqwSKcZjdB-13" target="Y_0qaRD-UfhqwSKcZjdB-15">
          <mxGeometry relative="1" as="geometry" />
        </mxCell>
        <mxCell id="Y_0qaRD-UfhqwSKcZjdB-13" value="digite um nome para qual vai ser designado a senha" style="rounded=0;whiteSpace=wrap;html=1;" vertex="1" parent="1">
          <mxGeometry x="151" y="-493" width="120" height="60" as="geometry" />
        </mxCell>
        <mxCell id="Y_0qaRD-UfhqwSKcZjdB-17" style="edgeStyle=none;curved=1;rounded=0;orthogonalLoop=1;jettySize=auto;html=1;entryX=0;entryY=0.5;entryDx=0;entryDy=0;fontSize=12;startSize=8;endSize=8;" edge="1" parent="1" source="Y_0qaRD-UfhqwSKcZjdB-15" target="Y_0qaRD-UfhqwSKcZjdB-1">
          <mxGeometry relative="1" as="geometry" />
        </mxCell>
        <mxCell id="Y_0qaRD-UfhqwSKcZjdB-15" value="digite o usuário" style="rounded=0;whiteSpace=wrap;html=1;" vertex="1" parent="1">
          <mxGeometry x="151" y="-365" width="120" height="60" as="geometry" />
        </mxCell>
        <mxCell id="Y_0qaRD-UfhqwSKcZjdB-20" style="edgeStyle=none;curved=1;rounded=0;orthogonalLoop=1;jettySize=auto;html=1;entryX=0;entryY=0.5;entryDx=0;entryDy=0;fontSize=12;startSize=8;endSize=8;" edge="1" parent="1" source="Y_0qaRD-UfhqwSKcZjdB-18" target="Y_0qaRD-UfhqwSKcZjdB-4">
          <mxGeometry relative="1" as="geometry" />
        </mxCell>
        <mxCell id="Y_0qaRD-UfhqwSKcZjdB-18" value="perguntar: vai ter numeros?" style="rounded=0;whiteSpace=wrap;html=1;" vertex="1" parent="1">
          <mxGeometry x="556" y="-365" width="120" height="60" as="geometry" />
        </mxCell>
        <mxCell id="Y_0qaRD-UfhqwSKcZjdB-26" style="edgeStyle=none;curved=1;rounded=0;orthogonalLoop=1;jettySize=auto;html=1;entryX=0;entryY=0.5;entryDx=0;entryDy=0;fontSize=12;startSize=8;endSize=8;" edge="1" parent="1" source="Y_0qaRD-UfhqwSKcZjdB-21" target="Y_0qaRD-UfhqwSKcZjdB-23">
          <mxGeometry relative="1" as="geometry" />
        </mxCell>
        <mxCell id="Y_0qaRD-UfhqwSKcZjdB-21" value="perguntar: vai ter letras maiúsculas?" style="rounded=0;whiteSpace=wrap;html=1;" vertex="1" parent="1">
          <mxGeometry x="732.5" y="-693" width="120" height="60" as="geometry" />
        </mxCell>
        <mxCell id="Y_0qaRD-UfhqwSKcZjdB-30" style="edgeStyle=none;curved=1;rounded=0;orthogonalLoop=1;jettySize=auto;html=1;entryX=0.5;entryY=1;entryDx=0;entryDy=0;fontSize=12;startSize=8;endSize=8;" edge="1" parent="1" source="Y_0qaRD-UfhqwSKcZjdB-22" target="Y_0qaRD-UfhqwSKcZjdB-28">
          <mxGeometry relative="1" as="geometry" />
        </mxCell>
        <mxCell id="Y_0qaRD-UfhqwSKcZjdB-36" style="edgeStyle=none;curved=1;rounded=0;orthogonalLoop=1;jettySize=auto;html=1;fontSize=12;startSize=8;endSize=8;" edge="1" parent="1" source="Y_0qaRD-UfhqwSKcZjdB-22" target="Y_0qaRD-UfhqwSKcZjdB-33">
          <mxGeometry relative="1" as="geometry" />
        </mxCell>
        <mxCell id="Y_0qaRD-UfhqwSKcZjdB-22" value="" style="rhombus;whiteSpace=wrap;html=1;" vertex="1" parent="1">
          <mxGeometry x="954.5" y="-15" width="83" height="77" as="geometry" />
        </mxCell>
        <mxCell id="Y_0qaRD-UfhqwSKcZjdB-29" style="edgeStyle=none;curved=1;rounded=0;orthogonalLoop=1;jettySize=auto;html=1;entryX=0.5;entryY=0;entryDx=0;entryDy=0;fontSize=12;startSize=8;endSize=8;" edge="1" parent="1" source="Y_0qaRD-UfhqwSKcZjdB-23" target="Y_0qaRD-UfhqwSKcZjdB-27">
          <mxGeometry relative="1" as="geometry" />
        </mxCell>
        <mxCell id="Y_0qaRD-UfhqwSKcZjdB-35" style="edgeStyle=none;curved=1;rounded=0;orthogonalLoop=1;jettySize=auto;html=1;entryX=0.5;entryY=1;entryDx=0;entryDy=0;fontSize=12;startSize=8;endSize=8;" edge="1" parent="1" source="Y_0qaRD-UfhqwSKcZjdB-23" target="Y_0qaRD-UfhqwSKcZjdB-34">
          <mxGeometry relative="1" as="geometry" />
        </mxCell>
        <mxCell id="Y_0qaRD-UfhqwSKcZjdB-23" value="" style="rhombus;whiteSpace=wrap;html=1;" vertex="1" parent="1">
          <mxGeometry x="940.5" y="-703" width="83" height="77" as="geometry" />
        </mxCell>
        <mxCell id="Y_0qaRD-UfhqwSKcZjdB-24" value="SIM&amp;nbsp;" style="text;html=1;align=center;verticalAlign=middle;whiteSpace=wrap;rounded=0;" vertex="1" parent="1">
          <mxGeometry x="933" y="86" width="60" height="30" as="geometry" />
        </mxCell>
        <mxCell id="Y_0qaRD-UfhqwSKcZjdB-44" style="edgeStyle=none;curved=1;rounded=0;orthogonalLoop=1;jettySize=auto;html=1;entryX=0;entryY=0.5;entryDx=0;entryDy=0;fontSize=12;startSize=8;endSize=8;" edge="1" parent="1" source="Y_0qaRD-UfhqwSKcZjdB-27" target="Y_0qaRD-UfhqwSKcZjdB-41">
          <mxGeometry relative="1" as="geometry" />
        </mxCell>
        <mxCell id="Y_0qaRD-UfhqwSKcZjdB-27" value="perguntar: vai ter caracteres especiais?" style="rounded=0;whiteSpace=wrap;html=1;" vertex="1" parent="1">
          <mxGeometry x="922" y="-522" width="120" height="60" as="geometry" />
        </mxCell>
        <mxCell id="Y_0qaRD-UfhqwSKcZjdB-46" style="edgeStyle=none;curved=1;rounded=0;orthogonalLoop=1;jettySize=auto;html=1;entryX=0;entryY=0.5;entryDx=0;entryDy=0;fontSize=12;startSize=8;endSize=8;" edge="1" parent="1" source="Y_0qaRD-UfhqwSKcZjdB-28" target="Y_0qaRD-UfhqwSKcZjdB-39">
          <mxGeometry relative="1" as="geometry" />
        </mxCell>
        <mxCell id="Y_0qaRD-UfhqwSKcZjdB-28" value="perguntar: vai ter caracteres especiais?" style="rounded=0;whiteSpace=wrap;html=1;" vertex="1" parent="1">
          <mxGeometry x="936" y="-146" width="120" height="60" as="geometry" />
        </mxCell>
        <mxCell id="Y_0qaRD-UfhqwSKcZjdB-31" value="NÃO" style="text;html=1;align=center;verticalAlign=middle;whiteSpace=wrap;rounded=0;" vertex="1" parent="1">
          <mxGeometry x="924" y="-613" width="60" height="30" as="geometry" />
        </mxCell>
        <mxCell id="Y_0qaRD-UfhqwSKcZjdB-32" value="NÃO" style="text;html=1;align=center;verticalAlign=middle;whiteSpace=wrap;rounded=0;" vertex="1" parent="1">
          <mxGeometry x="933" y="-55" width="60" height="30" as="geometry" />
        </mxCell>
        <mxCell id="Y_0qaRD-UfhqwSKcZjdB-47" style="edgeStyle=none;curved=1;rounded=0;orthogonalLoop=1;jettySize=auto;html=1;entryX=0;entryY=0.5;entryDx=0;entryDy=0;fontSize=12;startSize=8;endSize=8;" edge="1" parent="1" source="Y_0qaRD-UfhqwSKcZjdB-33" target="Y_0qaRD-UfhqwSKcZjdB-40">
          <mxGeometry relative="1" as="geometry" />
        </mxCell>
        <mxCell id="Y_0qaRD-UfhqwSKcZjdB-33" value="perguntar: vai ter caracteres especiais?" style="rounded=0;whiteSpace=wrap;html=1;" vertex="1" parent="1">
          <mxGeometry x="936" y="158" width="120" height="60" as="geometry" />
        </mxCell>
        <mxCell id="Y_0qaRD-UfhqwSKcZjdB-43" style="edgeStyle=none;curved=1;rounded=0;orthogonalLoop=1;jettySize=auto;html=1;fontSize=12;startSize=8;endSize=8;" edge="1" parent="1" source="Y_0qaRD-UfhqwSKcZjdB-34" target="Y_0qaRD-UfhqwSKcZjdB-42">
          <mxGeometry relative="1" as="geometry" />
        </mxCell>
        <mxCell id="Y_0qaRD-UfhqwSKcZjdB-34" value="perguntar: vai ter caracteres especiais?" style="rounded=0;whiteSpace=wrap;html=1;" vertex="1" parent="1">
          <mxGeometry x="922" y="-873" width="120" height="60" as="geometry" />
        </mxCell>
        <mxCell id="Y_0qaRD-UfhqwSKcZjdB-37" value="SIM&amp;nbsp;" style="text;html=1;align=center;verticalAlign=middle;whiteSpace=wrap;rounded=0;" vertex="1" parent="1">
          <mxGeometry x="931" y="-766" width="60" height="30" as="geometry" />
        </mxCell>
        <mxCell id="Y_0qaRD-UfhqwSKcZjdB-38" value="SIM&amp;nbsp;" style="text;html=1;align=center;verticalAlign=middle;whiteSpace=wrap;rounded=0;" vertex="1" parent="1">
          <mxGeometry x="1139" y="-450" width="60" height="30" as="geometry" />
        </mxCell>
        <mxCell id="Y_0qaRD-UfhqwSKcZjdB-56" style="edgeStyle=none;curved=1;rounded=0;orthogonalLoop=1;jettySize=auto;html=1;fontSize=12;startSize=8;endSize=8;" edge="1" parent="1" source="Y_0qaRD-UfhqwSKcZjdB-39" target="Y_0qaRD-UfhqwSKcZjdB-55">
          <mxGeometry relative="1" as="geometry" />
        </mxCell>
        <mxCell id="Y_0qaRD-UfhqwSKcZjdB-59" style="edgeStyle=none;curved=1;rounded=0;orthogonalLoop=1;jettySize=auto;html=1;fontSize=12;startSize=8;endSize=8;" edge="1" parent="1" source="Y_0qaRD-UfhqwSKcZjdB-39" target="Y_0qaRD-UfhqwSKcZjdB-58">
          <mxGeometry relative="1" as="geometry" />
        </mxCell>
        <mxCell id="Y_0qaRD-UfhqwSKcZjdB-39" value="" style="rhombus;whiteSpace=wrap;html=1;" vertex="1" parent="1">
          <mxGeometry x="1155" y="-154.5" width="83" height="77" as="geometry" />
        </mxCell>
        <mxCell id="Y_0qaRD-UfhqwSKcZjdB-50" style="edgeStyle=none;curved=1;rounded=0;orthogonalLoop=1;jettySize=auto;html=1;fontSize=12;startSize=8;endSize=8;" edge="1" parent="1" source="Y_0qaRD-UfhqwSKcZjdB-40" target="Y_0qaRD-UfhqwSKcZjdB-49">
          <mxGeometry relative="1" as="geometry" />
        </mxCell>
        <mxCell id="Y_0qaRD-UfhqwSKcZjdB-53" style="edgeStyle=none;curved=1;rounded=0;orthogonalLoop=1;jettySize=auto;html=1;entryX=0;entryY=0.5;entryDx=0;entryDy=0;fontSize=12;startSize=8;endSize=8;" edge="1" parent="1" source="Y_0qaRD-UfhqwSKcZjdB-40" target="Y_0qaRD-UfhqwSKcZjdB-52">
          <mxGeometry relative="1" as="geometry" />
        </mxCell>
        <mxCell id="Y_0qaRD-UfhqwSKcZjdB-40" value="" style="rhombus;whiteSpace=wrap;html=1;" vertex="1" parent="1">
          <mxGeometry x="1155" y="149.5" width="83" height="77" as="geometry" />
        </mxCell>
        <mxCell id="Y_0qaRD-UfhqwSKcZjdB-62" style="edgeStyle=none;curved=1;rounded=0;orthogonalLoop=1;jettySize=auto;html=1;entryX=0.5;entryY=0;entryDx=0;entryDy=0;fontSize=12;startSize=8;endSize=8;" edge="1" parent="1" source="Y_0qaRD-UfhqwSKcZjdB-41" target="Y_0qaRD-UfhqwSKcZjdB-61">
          <mxGeometry relative="1" as="geometry" />
        </mxCell>
        <mxCell id="Y_0qaRD-UfhqwSKcZjdB-64" style="edgeStyle=none;curved=1;rounded=0;orthogonalLoop=1;jettySize=auto;html=1;entryX=0;entryY=0.5;entryDx=0;entryDy=0;fontSize=12;startSize=8;endSize=8;" edge="1" parent="1" source="Y_0qaRD-UfhqwSKcZjdB-41" target="Y_0qaRD-UfhqwSKcZjdB-63">
          <mxGeometry relative="1" as="geometry" />
        </mxCell>
        <mxCell id="Y_0qaRD-UfhqwSKcZjdB-41" value="" style="rhombus;whiteSpace=wrap;html=1;" vertex="1" parent="1">
          <mxGeometry x="1155" y="-530.5" width="83" height="77" as="geometry" />
        </mxCell>
        <mxCell id="Y_0qaRD-UfhqwSKcZjdB-67" style="edgeStyle=none;curved=1;rounded=0;orthogonalLoop=1;jettySize=auto;html=1;entryX=0;entryY=0.5;entryDx=0;entryDy=0;fontSize=12;startSize=8;endSize=8;" edge="1" parent="1" source="Y_0qaRD-UfhqwSKcZjdB-42" target="Y_0qaRD-UfhqwSKcZjdB-66">
          <mxGeometry relative="1" as="geometry" />
        </mxCell>
        <mxCell id="Y_0qaRD-UfhqwSKcZjdB-70" style="edgeStyle=none;curved=1;rounded=0;orthogonalLoop=1;jettySize=auto;html=1;entryX=0.5;entryY=0;entryDx=0;entryDy=0;fontSize=12;startSize=8;endSize=8;" edge="1" parent="1" source="Y_0qaRD-UfhqwSKcZjdB-42" target="Y_0qaRD-UfhqwSKcZjdB-69">
          <mxGeometry relative="1" as="geometry" />
        </mxCell>
        <mxCell id="Y_0qaRD-UfhqwSKcZjdB-42" value="" style="rhombus;whiteSpace=wrap;html=1;" vertex="1" parent="1">
          <mxGeometry x="1155" y="-881.5" width="83" height="77" as="geometry" />
        </mxCell>
        <mxCell id="Y_0qaRD-UfhqwSKcZjdB-48" value="SIM&amp;nbsp;" style="text;html=1;align=center;verticalAlign=middle;whiteSpace=wrap;rounded=0;" vertex="1" parent="1">
          <mxGeometry x="1139" y="231" width="60" height="30" as="geometry" />
        </mxCell>
        <mxCell id="Y_0qaRD-UfhqwSKcZjdB-73" style="edgeStyle=none;curved=1;rounded=0;orthogonalLoop=1;jettySize=auto;html=1;entryX=0;entryY=0.5;entryDx=0;entryDy=0;fontSize=12;startSize=8;endSize=8;" edge="1" parent="1" source="Y_0qaRD-UfhqwSKcZjdB-49" target="Y_0qaRD-UfhqwSKcZjdB-72">
          <mxGeometry relative="1" as="geometry" />
        </mxCell>
        <mxCell id="Y_0qaRD-UfhqwSKcZjdB-49" value="gerar senha" style="rounded=0;whiteSpace=wrap;html=1;" vertex="1" parent="1">
          <mxGeometry x="1134" y="342" width="120" height="60" as="geometry" />
        </mxCell>
        <mxCell id="Y_0qaRD-UfhqwSKcZjdB-51" value="NÃO" style="text;html=1;align=center;verticalAlign=middle;whiteSpace=wrap;rounded=0;" vertex="1" parent="1">
          <mxGeometry x="1241" y="149.5" width="60" height="30" as="geometry" />
        </mxCell>
        <mxCell id="Y_0qaRD-UfhqwSKcZjdB-103" style="edgeStyle=none;curved=1;rounded=0;orthogonalLoop=1;jettySize=auto;html=1;entryX=0;entryY=0.5;entryDx=0;entryDy=0;fontSize=12;startSize=8;endSize=8;" edge="1" parent="1" source="Y_0qaRD-UfhqwSKcZjdB-52" target="Y_0qaRD-UfhqwSKcZjdB-102">
          <mxGeometry relative="1" as="geometry" />
        </mxCell>
        <mxCell id="Y_0qaRD-UfhqwSKcZjdB-52" value="gerar senha" style="rounded=0;whiteSpace=wrap;html=1;" vertex="1" parent="1">
          <mxGeometry x="1357" y="158" width="120" height="60" as="geometry" />
        </mxCell>
        <mxCell id="Y_0qaRD-UfhqwSKcZjdB-54" value="" style="ellipse;whiteSpace=wrap;html=1;aspect=fixed;" vertex="1" parent="1">
          <mxGeometry x="1534" y="358" width="28" height="28" as="geometry" />
        </mxCell>
        <mxCell id="Y_0qaRD-UfhqwSKcZjdB-98" style="edgeStyle=none;curved=1;rounded=0;orthogonalLoop=1;jettySize=auto;html=1;fontSize=12;startSize=8;endSize=8;" edge="1" parent="1" source="Y_0qaRD-UfhqwSKcZjdB-55" target="Y_0qaRD-UfhqwSKcZjdB-79">
          <mxGeometry relative="1" as="geometry" />
        </mxCell>
        <mxCell id="Y_0qaRD-UfhqwSKcZjdB-55" value="gerar senha" style="rounded=0;whiteSpace=wrap;html=1;" vertex="1" parent="1">
          <mxGeometry x="1339" y="-146" width="120" height="60" as="geometry" />
        </mxCell>
        <mxCell id="Y_0qaRD-UfhqwSKcZjdB-57" value="NÃO" style="text;html=1;align=center;verticalAlign=middle;whiteSpace=wrap;rounded=0;" vertex="1" parent="1">
          <mxGeometry x="1245" y="-154.5" width="60" height="30" as="geometry" />
        </mxCell>
        <mxCell id="Y_0qaRD-UfhqwSKcZjdB-99" style="edgeStyle=none;curved=1;rounded=0;orthogonalLoop=1;jettySize=auto;html=1;fontSize=12;startSize=8;endSize=8;" edge="1" parent="1" source="Y_0qaRD-UfhqwSKcZjdB-58" target="Y_0qaRD-UfhqwSKcZjdB-76">
          <mxGeometry relative="1" as="geometry" />
        </mxCell>
        <mxCell id="Y_0qaRD-UfhqwSKcZjdB-58" value="gerar senha" style="rounded=0;whiteSpace=wrap;html=1;" vertex="1" parent="1">
          <mxGeometry x="1139" y="-10" width="120" height="60" as="geometry" />
        </mxCell>
        <mxCell id="Y_0qaRD-UfhqwSKcZjdB-60" value="SIM&amp;nbsp;" style="text;html=1;align=center;verticalAlign=middle;whiteSpace=wrap;rounded=0;" vertex="1" parent="1">
          <mxGeometry x="1201" y="-62" width="60" height="30" as="geometry" />
        </mxCell>
        <mxCell id="Y_0qaRD-UfhqwSKcZjdB-88" style="edgeStyle=none;curved=1;rounded=0;orthogonalLoop=1;jettySize=auto;html=1;fontSize=12;startSize=8;endSize=8;" edge="1" parent="1" source="Y_0qaRD-UfhqwSKcZjdB-61" target="Y_0qaRD-UfhqwSKcZjdB-85">
          <mxGeometry relative="1" as="geometry" />
        </mxCell>
        <mxCell id="Y_0qaRD-UfhqwSKcZjdB-61" value="gerar senha" style="rounded=0;whiteSpace=wrap;html=1;" vertex="1" parent="1">
          <mxGeometry x="1134" y="-373.5" width="120" height="60" as="geometry" />
        </mxCell>
        <mxCell id="Y_0qaRD-UfhqwSKcZjdB-89" style="edgeStyle=none;curved=1;rounded=0;orthogonalLoop=1;jettySize=auto;html=1;entryX=0;entryY=0.5;entryDx=0;entryDy=0;fontSize=12;startSize=8;endSize=8;" edge="1" parent="1" source="Y_0qaRD-UfhqwSKcZjdB-63" target="Y_0qaRD-UfhqwSKcZjdB-82">
          <mxGeometry relative="1" as="geometry" />
        </mxCell>
        <mxCell id="Y_0qaRD-UfhqwSKcZjdB-63" value="gerar senha" style="rounded=0;whiteSpace=wrap;html=1;" vertex="1" parent="1">
          <mxGeometry x="1330" y="-522" width="120" height="60" as="geometry" />
        </mxCell>
        <mxCell id="Y_0qaRD-UfhqwSKcZjdB-65" value="NÃO" style="text;html=1;align=center;verticalAlign=middle;whiteSpace=wrap;rounded=0;" vertex="1" parent="1">
          <mxGeometry x="1245" y="-530.5" width="60" height="30" as="geometry" />
        </mxCell>
        <mxCell id="Y_0qaRD-UfhqwSKcZjdB-97" style="edgeStyle=none;curved=1;rounded=0;orthogonalLoop=1;jettySize=auto;html=1;entryX=0;entryY=0.5;entryDx=0;entryDy=0;fontSize=12;startSize=8;endSize=8;" edge="1" parent="1" source="Y_0qaRD-UfhqwSKcZjdB-66" target="Y_0qaRD-UfhqwSKcZjdB-96">
          <mxGeometry relative="1" as="geometry" />
        </mxCell>
        <mxCell id="Y_0qaRD-UfhqwSKcZjdB-66" value="gerar senha" style="rounded=0;whiteSpace=wrap;html=1;" vertex="1" parent="1">
          <mxGeometry x="1330" y="-873" width="120" height="60" as="geometry" />
        </mxCell>
        <mxCell id="Y_0qaRD-UfhqwSKcZjdB-68" value="NÃO" style="text;html=1;align=center;verticalAlign=middle;whiteSpace=wrap;rounded=0;" vertex="1" parent="1">
          <mxGeometry x="1245" y="-881.5" width="60" height="30" as="geometry" />
        </mxCell>
        <mxCell id="Y_0qaRD-UfhqwSKcZjdB-93" style="edgeStyle=none;curved=1;rounded=0;orthogonalLoop=1;jettySize=auto;html=1;entryX=0;entryY=0.5;entryDx=0;entryDy=0;fontSize=12;startSize=8;endSize=8;" edge="1" parent="1" source="Y_0qaRD-UfhqwSKcZjdB-69" target="Y_0qaRD-UfhqwSKcZjdB-90">
          <mxGeometry relative="1" as="geometry" />
        </mxCell>
        <mxCell id="Y_0qaRD-UfhqwSKcZjdB-69" value="gerar senha" style="rounded=0;whiteSpace=wrap;html=1;" vertex="1" parent="1">
          <mxGeometry x="1134" y="-736" width="120" height="60" as="geometry" />
        </mxCell>
        <mxCell id="Y_0qaRD-UfhqwSKcZjdB-71" value="SIM&amp;nbsp;" style="text;html=1;align=center;verticalAlign=middle;whiteSpace=wrap;rounded=0;" vertex="1" parent="1">
          <mxGeometry x="1148" y="-802" width="60" height="30" as="geometry" />
        </mxCell>
        <mxCell id="Y_0qaRD-UfhqwSKcZjdB-74" style="edgeStyle=none;curved=1;rounded=0;orthogonalLoop=1;jettySize=auto;html=1;entryX=0;entryY=0.5;entryDx=0;entryDy=0;fontSize=12;startSize=8;endSize=8;" edge="1" parent="1" source="Y_0qaRD-UfhqwSKcZjdB-72" target="Y_0qaRD-UfhqwSKcZjdB-54">
          <mxGeometry relative="1" as="geometry" />
        </mxCell>
        <mxCell id="Y_0qaRD-UfhqwSKcZjdB-72" value="salvar no arquivio senhas.txt" style="rounded=0;whiteSpace=wrap;html=1;" vertex="1" parent="1">
          <mxGeometry x="1348" y="342" width="120" height="60" as="geometry" />
        </mxCell>
        <mxCell id="Y_0qaRD-UfhqwSKcZjdB-75" value="" style="ellipse;whiteSpace=wrap;html=1;aspect=fixed;" vertex="1" parent="1">
          <mxGeometry x="1529" y="6" width="28" height="28" as="geometry" />
        </mxCell>
        <mxCell id="Y_0qaRD-UfhqwSKcZjdB-76" value="salvar no arquivio senhas.txt" style="rounded=0;whiteSpace=wrap;html=1;" vertex="1" parent="1">
          <mxGeometry x="1343" y="-10" width="120" height="60" as="geometry" />
        </mxCell>
        <mxCell id="Y_0qaRD-UfhqwSKcZjdB-77" style="edgeStyle=none;curved=1;rounded=0;orthogonalLoop=1;jettySize=auto;html=1;entryX=0;entryY=0.5;entryDx=0;entryDy=0;fontSize=12;startSize=8;endSize=8;" edge="1" source="Y_0qaRD-UfhqwSKcZjdB-76" target="Y_0qaRD-UfhqwSKcZjdB-75" parent="1">
          <mxGeometry relative="1" as="geometry" />
        </mxCell>
        <mxCell id="Y_0qaRD-UfhqwSKcZjdB-78" value="" style="ellipse;whiteSpace=wrap;html=1;aspect=fixed;" vertex="1" parent="1">
          <mxGeometry x="1732" y="-130" width="28" height="28" as="geometry" />
        </mxCell>
        <mxCell id="Y_0qaRD-UfhqwSKcZjdB-79" value="salvar no arquivio senhas.txt" style="rounded=0;whiteSpace=wrap;html=1;" vertex="1" parent="1">
          <mxGeometry x="1546" y="-146" width="120" height="60" as="geometry" />
        </mxCell>
        <mxCell id="Y_0qaRD-UfhqwSKcZjdB-80" style="edgeStyle=none;curved=1;rounded=0;orthogonalLoop=1;jettySize=auto;html=1;entryX=0;entryY=0.5;entryDx=0;entryDy=0;fontSize=12;startSize=8;endSize=8;" edge="1" source="Y_0qaRD-UfhqwSKcZjdB-79" target="Y_0qaRD-UfhqwSKcZjdB-78" parent="1">
          <mxGeometry relative="1" as="geometry" />
        </mxCell>
        <mxCell id="Y_0qaRD-UfhqwSKcZjdB-81" value="" style="ellipse;whiteSpace=wrap;html=1;aspect=fixed;" vertex="1" parent="1">
          <mxGeometry x="1723" y="-506" width="28" height="28" as="geometry" />
        </mxCell>
        <mxCell id="Y_0qaRD-UfhqwSKcZjdB-82" value="salvar no arquivio senhas.txt" style="rounded=0;whiteSpace=wrap;html=1;" vertex="1" parent="1">
          <mxGeometry x="1537" y="-522" width="120" height="60" as="geometry" />
        </mxCell>
        <mxCell id="Y_0qaRD-UfhqwSKcZjdB-83" style="edgeStyle=none;curved=1;rounded=0;orthogonalLoop=1;jettySize=auto;html=1;entryX=0;entryY=0.5;entryDx=0;entryDy=0;fontSize=12;startSize=8;endSize=8;" edge="1" source="Y_0qaRD-UfhqwSKcZjdB-82" target="Y_0qaRD-UfhqwSKcZjdB-81" parent="1">
          <mxGeometry relative="1" as="geometry" />
        </mxCell>
        <mxCell id="Y_0qaRD-UfhqwSKcZjdB-84" value="" style="ellipse;whiteSpace=wrap;html=1;aspect=fixed;" vertex="1" parent="1">
          <mxGeometry x="1521" y="-357.5" width="28" height="28" as="geometry" />
        </mxCell>
        <mxCell id="Y_0qaRD-UfhqwSKcZjdB-85" value="salvar no arquivio senhas.txt" style="rounded=0;whiteSpace=wrap;html=1;" vertex="1" parent="1">
          <mxGeometry x="1335" y="-373.5" width="120" height="60" as="geometry" />
        </mxCell>
        <mxCell id="Y_0qaRD-UfhqwSKcZjdB-86" style="edgeStyle=none;curved=1;rounded=0;orthogonalLoop=1;jettySize=auto;html=1;entryX=0;entryY=0.5;entryDx=0;entryDy=0;fontSize=12;startSize=8;endSize=8;" edge="1" source="Y_0qaRD-UfhqwSKcZjdB-85" target="Y_0qaRD-UfhqwSKcZjdB-84" parent="1">
          <mxGeometry relative="1" as="geometry" />
        </mxCell>
        <mxCell id="Y_0qaRD-UfhqwSKcZjdB-90" value="salvar no arquivio senhas.txt" style="rounded=0;whiteSpace=wrap;html=1;" vertex="1" parent="1">
          <mxGeometry x="1330" y="-736" width="120" height="60" as="geometry" />
        </mxCell>
        <mxCell id="Y_0qaRD-UfhqwSKcZjdB-91" style="edgeStyle=none;curved=1;rounded=0;orthogonalLoop=1;jettySize=auto;html=1;entryX=0;entryY=0.5;entryDx=0;entryDy=0;fontSize=12;startSize=8;endSize=8;" edge="1" source="Y_0qaRD-UfhqwSKcZjdB-90" target="Y_0qaRD-UfhqwSKcZjdB-92" parent="1">
          <mxGeometry relative="1" as="geometry" />
        </mxCell>
        <mxCell id="Y_0qaRD-UfhqwSKcZjdB-92" value="" style="ellipse;whiteSpace=wrap;html=1;aspect=fixed;" vertex="1" parent="1">
          <mxGeometry x="1516" y="-720" width="28" height="28" as="geometry" />
        </mxCell>
        <mxCell id="Y_0qaRD-UfhqwSKcZjdB-94" value="" style="ellipse;whiteSpace=wrap;html=1;aspect=fixed;" vertex="1" parent="1">
          <mxGeometry x="1735" y="-857" width="28" height="28" as="geometry" />
        </mxCell>
        <mxCell id="Y_0qaRD-UfhqwSKcZjdB-95" style="edgeStyle=none;curved=1;rounded=0;orthogonalLoop=1;jettySize=auto;html=1;entryX=0;entryY=0.5;entryDx=0;entryDy=0;fontSize=12;startSize=8;endSize=8;" edge="1" source="Y_0qaRD-UfhqwSKcZjdB-96" target="Y_0qaRD-UfhqwSKcZjdB-94" parent="1">
          <mxGeometry relative="1" as="geometry" />
        </mxCell>
        <mxCell id="Y_0qaRD-UfhqwSKcZjdB-96" value="salvar no arquivio senhas.txt" style="rounded=0;whiteSpace=wrap;html=1;" vertex="1" parent="1">
          <mxGeometry x="1549" y="-873" width="120" height="60" as="geometry" />
        </mxCell>
        <mxCell id="Y_0qaRD-UfhqwSKcZjdB-100" value="" style="ellipse;whiteSpace=wrap;html=1;aspect=fixed;" vertex="1" parent="1">
          <mxGeometry x="1748" y="174" width="28" height="28" as="geometry" />
        </mxCell>
        <mxCell id="Y_0qaRD-UfhqwSKcZjdB-101" style="edgeStyle=none;curved=1;rounded=0;orthogonalLoop=1;jettySize=auto;html=1;entryX=0;entryY=0.5;entryDx=0;entryDy=0;fontSize=12;startSize=8;endSize=8;" edge="1" source="Y_0qaRD-UfhqwSKcZjdB-102" target="Y_0qaRD-UfhqwSKcZjdB-100" parent="1">
          <mxGeometry relative="1" as="geometry" />
        </mxCell>
        <mxCell id="Y_0qaRD-UfhqwSKcZjdB-102" value="salvar no arquivio senhas.txt" style="rounded=0;whiteSpace=wrap;html=1;" vertex="1" parent="1">
          <mxGeometry x="1562" y="158" width="120" height="60" as="geometry" />
        </mxCell>
      </root>
    </mxGraphModel>
  </diagram>
</mxfile>
